<svg xmlns="http://www.w3.org/2000/svg" width="18" height="18" viewBox="0 0 18 18">
  <defs>
    <style>
      .cls-1 {
        fill: #b5b8c0;
        fill-rule: evenodd;
      }
    </style>
  </defs>
  <path id="иконка" class="cls-1" d="M192.016,950h13.968l-4.5-6-3.468,4.5-2.532-3Zm15.4,2.414a1.944,1.944,0,0,1-1.43.586H192.016A2,2,0,0,1,190,950.984V937.016A2,2,0,0,1,192.016,935h13.968a1.987,1.987,0,0,1,1.43.562,1.929,1.929,0,0,1,.586,1.454v13.968A1.947,1.947,0,0,1,207.414,952.414Z" transform="translate(-190 -935)"/>
</svg>
