<svg xmlns="http://www.w3.org/2000/svg" width="18" height="18" viewBox="0 0 18 18">
  <defs>
    <style>
      .cls-1 {
        fill: #b5b8c0;
        fill-rule: evenodd;
      }
    </style>
  </defs>
  <path id="иконка" class="cls-1" d="M199.937,918.078a2.2,2.2,0,0,0,.422.328,20.8,20.8,0,0,0-3.328.938l-0.094.047a4.873,4.873,0,0,1,.469-1.032,12.817,12.817,0,0,0,1.031-2.437,5.732,5.732,0,0,0,1.5,2.156h0Zm5.274,1.055a0.824,0.824,0,0,0-.164-0.586q-0.422-.7-2.25-0.7a10.047,10.047,0,0,0-1.313.093,5.746,5.746,0,0,1-.843-0.609,5.518,5.518,0,0,1-1.594-2.531v-0.141a12.024,12.024,0,0,0,.375-2.062,1.961,1.961,0,0,0-.375-1.547,0.828,0.828,0,0,0-.61-0.235H198.2a0.646,0.646,0,0,0-.492.235,1.449,1.449,0,0,0-.305.515,3.916,3.916,0,0,0-.164,1.688,11.748,11.748,0,0,0,.4,1.594,21.756,21.756,0,0,1-1.079,2.953q-0.516.984-.984,1.781a7.187,7.187,0,0,0-.891.469,6.038,6.038,0,0,0-1.335,1.172,2.6,2.6,0,0,0-.54.984,0.944,0.944,0,0,0,.047.516l0.047,0.047,0.469,0.328a0.919,0.919,0,0,0,.422.093,2.016,2.016,0,0,0,1.336-.726,12.053,12.053,0,0,0,1.664-2.32l0.187-.094a22.268,22.268,0,0,1,4.032-.75,6.9,6.9,0,0,0,1.57.562,6.549,6.549,0,0,0,1.453.188,1.09,1.09,0,0,0,.867-0.281h0A0.973,0.973,0,0,0,205.211,919.133Zm2.2-10.571a1.929,1.929,0,0,1,.586,1.454v13.968A2,2,0,0,1,205.984,926H192.016A2,2,0,0,1,190,923.984V910.016A1.926,1.926,0,0,1,192.016,908h13.968A1.987,1.987,0,0,1,207.414,908.562Zm-2.836,10.594c0,0.094-.031.141-0.094,0.141H204.25a4.724,4.724,0,0,1-1.875-.516,0.459,0.459,0,0,1,.234-0.094,4.9,4.9,0,0,1,1.43.141,0.95,0.95,0,0,1,.445.234Zm-10.922,3.328a1.983,1.983,0,0,1,.352-0.726,6.906,6.906,0,0,1,.82-0.961q0.188-.093.516-0.281a4.22,4.22,0,0,1-1.688,1.968h0Zm4.641-10.922,0.047-.14,0.14,0.047a1.158,1.158,0,0,1,.094,1.078l-0.187.984-0.047.047a3.394,3.394,0,0,1-.047-2.016h0Z" transform="translate(-190 -908)"/>
</svg>
