<svg xmlns="http://www.w3.org/2000/svg" width="18" height="18" viewBox="0 0 18 18">
  <defs>
    <style>
      .cls-1 {
        fill: #b5b8c0;
        fill-rule: evenodd;
      }
    </style>
  </defs>
  <path id="иконка" class="cls-1" d="M201.016,974H199v-2.016h-2.016V974H199v2.016h2.016V974Zm0-8.016H199v-1.968h-2.016v1.968H199V968h-2.016v2.016H199v1.968h2.016v-1.968H199V968h2.016v-2.016Zm6.4-3.422a1.929,1.929,0,0,1,.586,1.454v13.968A2,2,0,0,1,205.984,980H192.016A2,2,0,0,1,190,977.984V964.016A1.926,1.926,0,0,1,192.016,962h13.968A1.987,1.987,0,0,1,207.414,962.562Z" transform="translate(-190 -962)"/>
</svg>
