<svg xmlns="http://www.w3.org/2000/svg" width="10.688" height="10.688" viewBox="0 0 10.688 10.688">
  <defs>
    <style>
      .cls-1 {
        fill: #b5b8c0;
        fill-rule: evenodd;
      }
    </style>
  </defs>
  <path id="иконка" class="cls-1" d="M745.344,937.656v4.688h-4.688l2.156-2.157a3.776,3.776,0,0,0-1.25-.875A3.88,3.88,0,0,0,740,939a4,4,0,0,0,0,8,4.107,4.107,0,0,0,2.328-.75,3.954,3.954,0,0,0,1.453-1.906h1.375A5.337,5.337,0,1,1,740,937.656a5.57,5.57,0,0,1,3.781,1.563Z" transform="translate(-734.656 -937.656)"/>
</svg>
